<svg width="512" height="512" viewBox="0 0 512 512" fill="none" xmlns="http://www.w3.org/2000/svg" role="img" aria-label="JSON Parser Visualize Logo">
  <defs>
    <linearGradient id="g" x1="96" y1="72" x2="416" y2="440" gradientUnits="userSpaceOnUse">
      <stop stop-color="#2B4B87"/>
      <stop offset="1" stop-color="#0D7A66"/>
    </linearGradient>
    <filter id="shadow" x="32" y="32" width="448" height="448" filterUnits="userSpaceOnUse" color-interpolation-filters="sRGB">
      <feDropShadow dx="0" dy="10" stdDeviation="10" flood-opacity="0.12"/>
    </filter>
  </defs>

  <rect x="56" y="56" width="400" height="400" rx="88" fill="white"/>
  <rect x="56" y="56" width="400" height="400" rx="88" stroke="#D9DCE7" stroke-width="10"/>

  <g filter="url(#shadow)">
    <rect x="96" y="96" width="320" height="320" rx="56" fill="url(#g)"/>
  </g>

  <g stroke="white" stroke-width="16" stroke-linecap="round" stroke-linejoin="round">
    <path d="M178 162L138 202L178 242"/>
    <path d="M334 162L374 202L334 242"/>
    <path d="M198 314H314"/>
    <path d="M256 246V314"/>
    <path d="M256 314L220 350"/>
    <path d="M256 314L292 350"/>
  </g>

  <circle cx="256" cy="314" r="12" fill="white"/>
  <circle cx="220" cy="350" r="10" fill="white"/>
  <circle cx="292" cy="350" r="10" fill="white"/>

  <rect x="198" y="340" width="44" height="20" rx="6" fill="white" fill-opacity="0.14"/>
  <rect x="270" y="340" width="44" height="20" rx="6" fill="white" fill-opacity="0.14"/>
</svg>
